PathFileType   4   (X/Y/Z)
DataRate  CameraRate  NumFrames  NumMarkers  Units  OrigDataRate  OrigDataStartFrame  OrigNumFrames  
  120.0      120.0        4         37         mm      120.0          21        160
Frame#      Time                    midhip                           hip_r                           hip_l                          knee_r                          knee_l                         ankle_r                         ankle_l                         midasis                          asis_r                          asis_l                          psis_r                          psis_l                    epicondLat_r                    epicondLat_l                    epicondMed_r                    epicondMed_l                  malleolusLat_r                  malleolusLat_l                 malleolusMedv_r                 malleolusMedv_l                            neck                   subclavicle_r                   subclavicle_l                    sternalnotch                  xyphoidprocess                     thighwand_r                     thighwand_l                     upperleg1_r                     upperleg1_l                     upperleg2_r                     upperleg2_l                     shankwand_r                     shankwand_l                     lowerleg1_r                     lowerleg1_l                           toe_r                           toe_l            
              X1          Y1          Z1          X2          Y2          Z2          X3          Y3          Z3          X4          Y4          Z4          X5          Y5          Z5          X6          Y6          Z6          X7          Y7          Z7          X8          Y8          Z8          X9          Y9          Z9          X10          Y10          Z10          X11          Y11          Z11          X12          Y12          Z12          X13          Y13          Z13          X14          Y14          Z14          X15          Y15          Z15          X16          Y16          Z16          X17          Y17          Z17          X18          Y18          Z18          X19          Y19          Z19          X20          Y20          Z20          X21          Y21          Z21          X22          Y22          Z22          X23          Y23          Z23          X24          Y24          Z24          X25          Y25          Z25          X26          Y26          Z26          X27          Y27          Z27          X28          Y28          Z28          X29          Y29          Z29          X30          Y30          Z30          X31          Y31          Z31          X32          Y32          Z32          X33          Y33          Z33          X34          Y34          Z34          X35          Y35          Z35          X36          Y36          Z36          X37          Y37          Z37          

	21	0.26667	101.313	781.393	-233.718	90.453	775.266	-177.660	112.173	787.519	-289.776	43.027	424.196	-164.350	196.686	436.800	-297.626	51.510	66.827	-175.896	68.488	106.471	-295.935	136.525	852.168	-219.766	130.824	846.365	-110.332	142.225	857.971	-329.200	-37.253	882.338	-202.507	-35.055	881.878	-255.344	69.346	422.677	-104.796	204.564	431.478	-356.761	72.649	422.666	-231.583	213.034	436.364	-226.744	39.038	66.259	-140.535	60.650	109.184	-331.480	57.457	62.048	-208.639	65.285	108.839	-262.388	46.230	1276.607	-201.528	147.740	1194.624	-153.305	154.842	1202.439	-258.109	148.658	1198.720	-208.965	149.609	1097.031	-219.011	191.379	559.860	-118.216	267.708	609.773	-361.218	131.883	598.799	-91.330	229.845	646.542	-298.145	121.187	541.108	-98.896	241.070	589.525	-288.741	168.121	178.819	-125.447	95.052	207.812	-421.324	94.419	166.912	-156.725	94.470	198.989	-341.705	127.956	46.032	-152.672	149.384	70.547	-301.503
	22	0.27500	111.534	781.286	-232.908	100.527	775.031	-176.893	122.541	787.541	-288.922	45.381	425.605	-163.939	213.046	437.995	-296.542	51.703	66.738	-176.120	101.536	101.524	-293.970	146.934	851.930	-218.638	140.992	845.855	-109.317	152.876	858.005	-327.959	-26.924	882.538	-201.401	-24.503	882.051	-254.807	72.434	422.575	-104.427	220.540	433.168	-355.611	74.965	423.684	-231.175	228.861	438.248	-225.553	39.120	66.228	-140.797	93.269	103.843	-329.446	57.686	62.564	-208.943	98.339	103.701	-260.381	57.214	1276.480	-200.404	158.794	1193.834	-152.792	165.618	1202.001	-257.938	159.563	1198.126	-208.614	160.130	1096.469	-219.003	197.127	557.580	-117.102	280.364	612.030	-359.994	138.691	597.733	-90.100	241.332	648.724	-297.409	126.466	540.111	-97.964	253.830	591.702	-287.769	169.119	177.910	-125.167	121.701	204.098	-419.531	95.962	166.727	-156.130	122.119	195.299	-339.813	128.127	45.957	-152.797	183.864	69.579	-299.832
	23	0.28333	121.907	780.828	-231.956	110.721	774.514	-175.983	133.093	787.142	-287.928	48.095	426.702	-163.488	227.703	439.328	-295.531	51.914	66.638	-176.361	134.760	97.011	-292.049	157.420	851.399	-217.460	151.171	845.174	-108.215	163.668	857.624	-326.705	-16.612	882.416	-200.226	-13.872	881.856	-254.337	75.715	422.456	-104.017	235.958	434.468	-354.629	77.675	423.913	-229.934	242.907	438.539	-226.269	39.233	66.188	-141.073	126.019	98.895	-327.436	58.086	62.974	-209.225	131.927	98.859	-258.440	68.229	1276.047	-199.008	169.564	1192.665	-152.384	176.317	1201.359	-257.050	170.296	1197.250	-207.962	170.398	1095.652	-218.924	203.014	555.341	-115.915	292.739	613.670	-358.738	145.415	596.732	-89.081	252.773	649.537	-296.071	131.767	539.222	-96.880	265.908	593.201	-286.983	170.162	176.936	-124.940	148.129	200.487	-417.796	97.693	166.530	-155.660	150.042	191.789	-337.855	128.335	45.928	-152.947	218.366	69.156	-298.361
	24	0.29167	132.398	780.066	-230.831	121.018	773.766	-174.896	143.777	786.366	-286.766	51.062	427.232	-163.009	241.253	439.837	-294.622	52.159	66.575	-176.639	168.036	92.988	-290.200	167.983	850.582	-216.235	161.373	844.328	-107.023	174.593	856.837	-325.447	-6.266	881.954	-199.067	-3.165	881.296	-253.919	79.206	422.316	-103.585	250.836	435.335	-353.793	80.751	423.117	-227.999	255.220	438.123	-226.674	39.389	66.186	-141.383	158.806	94.387	-325.485	58.542	62.857	-209.476	165.704	94.589	-256.587	79.169	1275.356	-198.245	180.447	1191.782	-151.970	187.209	1200.652	-255.950	181.185	1196.465	-207.206	181.204	1094.892	-218.400	209.035	553.133	-114.672	304.879	614.687	-357.421	152.065	595.722	-88.324	263.978	649.472	-294.714	137.026	538.031	-95.754	277.392	593.709	-286.010	171.260	175.891	-124.774	174.355	196.986	-416.144	98.788	166.301	-155.913	177.925	188.530	-336.020	128.576	45.945	-153.120	252.790	69.351	-297.089
